<svg class="icon" viewBox="0 0 1122 1024" version="1.1" xmlns="http://www.w3.org/2000/svg" id="3217"
            width="100" height="100">
            <path d="M564.697076 309.445614h18.11462v170.367251h-18.11462z" fill="#BBEDFF" id="3218"></path>
            <path d="M582.811696 309.445614h17.964912v170.367251h-17.964912z" fill="#BCEDFF" id="3219"></path>
            <path d="M600.626901 309.445614h17.964912v170.367251h-17.964912z" fill="#BEEDFF" id="3220"></path>
            <path d="M618.74152 309.445614h18.11462v170.367251h-18.11462z" fill="#C0EEFF" id="3221"></path>
            <path d="M636.706433 309.445614h17.964912v170.367251h-17.964912z" fill="#C1EEFF" id="3222"></path>
            <path d="M654.671345 309.445614h17.964912v170.367251h-17.964912z" fill="#C2EEFF" id="3223"></path>
            <path d="M672.636257 309.445614h18.11462v170.367251h-18.11462z" fill="#C3EEFF" id="3224"></path>
            <path d="M690.750877 309.445614h17.964912v170.367251h-17.964912z" fill="#C4EEFF" id="3225"></path>
            <path d="M708.566082 309.445614h17.964912v170.367251h-17.964912z" fill="#C5EEFF" id="3226"></path>
            <path d="M726.530994 309.445614h18.11462v170.367251h-18.11462z" fill="#C5EFFF" id="3227"></path>
            <path d="M744.645614 309.445614h17.964912v170.367251h-17.964912z" fill="#C6EFFF" id="3228"></path>
            <path d="M762.460819 309.445614h17.964912v170.367251h-17.964912z" fill="#C7EFFF" id="3229"></path>
            <path d="M780.425731 309.445614h18.11462v170.367251h-18.11462z" fill="#C8EFFF" id="3230"></path>
            <path d="M798.390643 309.445614h18.11462v170.367251h-18.11462z" fill="#C9EFFF" id="3231"></path>
            <path d="M816.505263 309.445614h17.964912v170.367251h-17.964912z" fill="#CAEFFF" id="3232"></path>
            <path d="M834.470175 309.445614h18.11462v170.367251h-18.11462z" fill="#CDF0FF" id="3233"></path>
            <path d="M870.4 479.663158h-18.11462V309.445614" fill="#CEF0FF" id="3234"></path>
            <path
              d="M611.106433 742.699415H267.677193c-16.916959 0-30.839766 13.922807-30.839766 30.839766 0 7.48538 2.844444 14.37193 7.185965 19.761404H115.574269c-16.916959 0-30.839766 13.922807-30.839766 30.839766s13.922807 30.839766 30.839766 30.839766h50.750877c-9.431579 5.389474-15.569591 15.270175-15.56959 26.647953 0 16.916959 13.922807 30.839766 30.839766 30.839766h343.429239c16.916959 0 30.839766-13.922807 30.839766-30.839766s-13.922807-30.839766-30.839766-30.839766h-50.750877c9.431579-5.389474 15.569591-15.270175 15.569591-26.647953 0-7.48538-2.844444-14.37193-7.185965-19.761404h128.449123c16.916959 0 30.839766-13.922807 30.839766-30.839766s-13.922807-30.839766-30.839766-30.839766z m0 0"
              fill="#488FF0" id="3235"></path>
            <path
              d="M862.465497 940.912281H374.867836c-3.74269 0-6.587135-2.844444-6.587134-6.587135V313.338012c0-3.592982 2.844444-6.587135 6.587134-6.587135H862.315789c3.74269 0 6.587135 2.844444 6.587135 6.587135v620.987134c0.299415 3.443275-2.694737 6.587135-6.437427 6.587135z m0 0"
              fill="#BEE1FF" id="3236"></path>
            <path
              d="M594.638596 659.761404H423.223392c-2.095906 0-3.74269-1.646784-3.74269-3.742691v-23.354386c0-2.095906 1.646784-3.74269 3.74269-3.74269h171.265497c2.095906 0 3.74269 1.646784 3.74269 3.74269v23.354386c0.299415 1.796491-1.497076 3.74269-3.592983 3.742691z"
              fill="#FFFFFF" id="3237"></path>
            <path
              d="M496.430409 278.45614h-27.396491c-4.491228 0-8.533333-3.74269-8.533333-8.533333 0-4.491228 3.74269-8.533333 8.533333-8.533333h27.396491c4.491228 0 8.533333 3.74269 8.533334 8.533333s-3.892398 8.533333-8.533334 8.533333z m-157.192982 181.445614c-4.491228 0-8.533333-3.74269-8.533333-8.533333V296.870175c0-19.461988 16.018713-35.480702 35.480701-35.480701h72.009357c4.491228 0 8.533333 3.74269 8.533333 8.533333 0 4.491228-3.74269 8.533333-8.533333 8.533333h-72.009357c-10.180117 0-18.414035 8.383626-18.414035 18.414035v154.797661c0 4.640936-4.042105 8.233918-8.533333 8.233918z m0 50.750878c-4.491228 0-8.533333-3.74269-8.533333-8.533334v-14.671345c0-4.491228 3.74269-8.533333 8.533333-8.533333s8.533333 3.74269 8.533333 8.533333v14.671345c0 4.790643-4.042105 8.533333-8.533333 8.533334z m333.698246 413.642105H366.184795c-19.461988 0-35.480702-16.018713-35.480701-35.480702V535.953216c0-4.491228 3.74269-8.533333 8.533333-8.533333s8.533333 3.74269 8.533333 8.533333v352.860819c0 10.180117 8.383626 18.414035 18.414035 18.414035h306.750878c4.491228 0 8.533333 3.74269 8.533333 8.533334-0.149708 4.790643-3.74269 8.533333-8.533333 8.533333z m46.708771 0h-19.761403c-4.491228 0-8.533333-3.74269-8.533333-8.533333 0-4.491228 3.74269-8.533333 8.533333-8.533334h19.761403c4.491228 0 8.533333 3.74269 8.533334 8.533334-0.149708 4.790643-4.042105 8.533333-8.533334 8.533333z m105.394152 0h-61.978947c-4.491228 0-8.533333-3.74269-8.533333-8.533333 0-4.491228 3.74269-8.533333 8.533333-8.533334h61.978947c10.180117 0 18.414035-8.383626 18.414036-18.414035v-89.225731c0-4.491228 3.74269-8.533333 8.533333-8.533333 4.491228 0 8.533333 3.74269 8.533333 8.533333v89.225731c0.149708 19.611696-16.018713 35.480702-35.480702 35.480702z m26.947369-333.398831c-4.491228 0-8.533333-3.74269-8.533333-8.533333V297.169591c0-10.180117-8.383626-18.414035-18.414036-18.414035H530.863158c-4.491228 0-8.533333-3.74269-8.533333-8.533334 0-4.491228 3.74269-8.533333 8.533333-8.533333h294.175438c19.461988 0 35.480702 16.018713 35.480702 35.480702V582.362573c0.149708 4.790643-3.74269 8.533333-8.533333 8.533333z m0 0"
              fill="#488FF0" id="3238"></path>
            <path
              d="M749.28655 749.735673H423.522807c-2.095906 0-3.74269-1.646784-3.74269-3.742691v-23.354386c0-2.095906 1.646784-3.74269 3.74269-3.74269h325.91345c2.095906 0 3.74269 1.646784 3.74269 3.74269v23.354386c0 2.095906-1.946199 3.74269-3.892397 3.742691z m9.880701 98.507602H423.522807c-2.095906 0-3.74269-1.646784-3.74269-3.74269v-23.354386c0-2.095906 1.646784-3.74269 3.74269-3.74269h335.644444c2.095906 0 3.74269 1.646784 3.742691 3.74269v23.354386c0 1.946199-1.646784 3.74269-3.742691 3.74269z m0 0"
              fill="#FFFFFF" id="3239"></path>
            <path
              d="M783.120468 570.535673c-67.667836 0-122.460819 54.792982-122.460819 122.460818 0 67.667836 54.792982 122.460819 122.460819 122.460819s122.460819-54.792982 122.460819-122.460819c0-67.667836-54.643275-122.460819-122.460819-122.460818z m0 209.440935c-48.05614 0-87.42924-39.073684-87.42924-87.42924 0-48.05614 38.923977-87.42924 87.42924-87.429239 48.05614 0 87.42924 39.073684 87.42924 87.429239-0.149708 48.505263-39.223392 87.42924-87.42924 87.42924z m0 0"
              fill="#EFF8FA" id="3240"></path>
            <path
              d="M783.120468 823.840936c-72.159064 0-130.994152-58.68538-130.994152-130.994152s58.68538-130.994152 130.994152-130.994152 130.994152 58.68538 130.994152 130.994152-58.68538 130.994152-130.994152 130.994152z m0-245.071345c-62.727485 0-113.777778 51.050292-113.777778 113.777777s51.050292 113.777778 113.777778 113.777778c62.877193 0 113.777778-51.050292 113.777778-113.777778 0.149708-62.42807-50.750877-113.777778-113.777778-113.777777z m0 0"
              fill="#488FF0" id="3241"></path>
            <path
              d="M855.42924 786.563743l16.018713-15.869006 34.432749 34.432748-15.869006 15.869006-34.582456-34.432748z m0 0"
              fill="#FFAAB7" id="3242"></path>
            <path
              d="M745.992982 647.784795c-1.197661 0-2.545029-0.59883-3.293567-1.646783-1.347368-1.946199-1.047953-4.491228 0.898246-6.138012 3.74269-2.694737 7.784795-5.239766 11.8269-7.036257 2.095906-1.047953 4.491228 0 5.539182 2.095906 1.047953 2.095906 0 4.491228-2.095907 5.539181-3.74269 1.646784-7.036257 3.74269-10.329824 6.138012-0.898246 0.748538-1.796491 1.047953-2.54503 1.047953z m-24.701754 49.253801c-2.245614 0-4.191813-1.946199-4.191813-4.191812 0-4.191813 0.449123-8.533333 1.197661-12.725147 0.898246-4.34152 2.095906-8.533333 3.74269-12.725146 2.245614-5.389474 5.239766-10.62924 8.832749-15.120468 1.347368-1.946199 4.191813-2.095906 6.138011-0.898245 1.946199 1.347368 2.095906 4.191813 0.898246 6.138011-3.14386 4.191813-5.838596 8.533333-7.784795 13.323977-1.347368 3.592982-2.545029 7.185965-3.293568 11.078363-0.59883 3.592982-1.047953 7.185965-1.047953 11.078362-0.299415 2.245614-2.095906 4.042105-4.491228 4.042105z m0 0"
              fill="#FFFFFF" id="3243"></path>
            <path
              d="M783.120468 788.659649c-52.697076 0-95.663158-42.966082-95.663158-95.663158s42.966082-95.663158 95.663158-95.663158 95.663158 42.966082 95.663158 95.663158c0.149708 52.547368-42.816374 95.663158-95.663158 95.663158z m0-174.559064c-43.265497 0-78.895906 35.330994-78.895907 78.895906s35.330994 78.895906 78.895907 78.895907 78.895906-35.330994 78.895906-78.895907-35.480702-78.895906-78.895906-78.895906z m115.274854 210.638596l-42.966082-42.966082 27.845614-27.845614 42.966082 42.966082-27.845614 27.845614z m-18.863158-43.115789l18.863158 18.863158 3.892397-3.892398-18.863158-18.863158-3.892397 3.892398z m0 0"
              fill="#488FF0" id="3244"></path>
            <path
              d="M1025.796491 911.869006l-29.192982 29.192982c-2.095906 2.095906-5.389474 2.095906-7.185965 0l-108.538012-108.538011 36.528655-36.528655 108.538012 108.538011c1.796491 2.095906 1.796491 5.239766-0.149708 7.335673z m0 0"
              fill="#FF9140" id="3245"></path>
            <path
              d="M1001.244444 935.97193c-7.784795 0-15.120468-2.844444-20.959064-8.683041L877.28655 824.140351l48.505263-48.505263 103.298245 103.298245c5.539181 5.539181 8.683041 13.024561 8.683041 20.959065s-3.14386 15.270175-8.683041 20.959064l-6.587134 6.587134c-6.138012 5.688889-13.623392 8.533333-21.25848 8.533334z m-100.154386-111.831579l91.321638 91.321637c4.940351 4.940351 13.024561 4.940351 18.11462 0l6.587134-6.587134c2.545029-2.545029 3.74269-5.539181 3.74269-8.832749s-1.197661-6.587135-3.74269-8.832748l-91.321637-91.321638-24.701755 24.252632z m0 0"
              fill="#488FF0" id="3246"></path>
            <path
              d="M510.203509 455.260819h-96.411696c-3.74269 0-6.587135-2.844444-6.587135-6.587135v-96.411696c0-3.74269 2.844444-6.587135 6.587135-6.587134h96.411696c3.74269 0 6.587135 2.844444 6.587134 6.587134v96.411696c0.149708 3.443275-2.844444 6.587135-6.587134 6.587135z m0 0"
              fill="#FFFFFF" id="3247"></path>
            <path
              d="M649.581287 120.215205c3.14386-0.898246 2.844444-5.389474-0.299416-5.838597-2.694737-0.449123-3.592982-3.74269-1.347368-5.389473 2.545029-2.095906 0.449123-6.138012-2.694737-5.239767-2.545029 0.59883-4.790643-1.946199-3.592982-4.34152 1.347368-2.844444-2.095906-5.838596-4.491228-3.74269-2.095906 1.646784-5.239766 0.299415-4.940351-2.545029 0.299415-3.293567-4.191813-4.491228-5.838597-1.347369-1.197661 2.245614-4.491228 2.245614-5.539181-0.299415-1.197661-3.14386-5.539181-2.245614-5.838597 0.898246-0.299415 2.694737-3.293567 3.892398-5.239766 2.095906-2.245614-2.245614-6.138012 0.299415-4.940351 3.293567 1.047953 2.545029-1.347368 4.940351-3.892397 3.892398-3.14386-1.197661-5.539181 2.694737-3.293567 4.940351 1.946199 1.946199 0.59883 4.940351-2.095907 5.239766-3.293567 0.299415-3.892398 4.790643-0.898246 5.838596 2.545029 0.898246 2.694737 4.34152 0.299416 5.539182-2.844444 1.347368-1.646784 6.138012 1.347368 5.838596 2.694737-0.299415 4.191813 2.844444 2.545029 4.940351-2.095906 2.545029 0.898246 6.138012 3.74269 4.491228 2.245614-1.197661 4.940351 1.047953 4.341521 3.592983-0.898246 3.14386 3.293567 5.239766 5.239766 2.694736 1.646784-2.095906 4.940351-1.197661 5.389474 1.347369 0.449123 3.293567 5.239766 3.592982 5.838596 0.299415 0.59883-2.545029 4.191813-3.14386 5.389474-0.898246 1.946199 2.694737 6.138012 1.047953 5.539181-2.095906-0.449123-2.694737 2.545029-4.491228 4.491228-3.14386 2.694737 1.946199 6.138012-1.347368 4.191813-4.191812-1.347368-2.245614 0.449123-4.940351 3.14386-4.491229 3.293567 0.59883 4.940351-3.74269 2.095906-5.539181-1.646784-1.796491-1.047953-5.090058 1.347369-5.838596z m-27.097076 12.126315c-7.48538 0-13.623392-6.138012-13.623392-13.623391s6.138012-13.623392 13.623392-13.623392 13.623392 6.138012 13.623391 13.623392c-0.149708 7.635088-6.138012 13.623392-13.623391 13.623391z m0 0"
              fill="#C3EEFF" id="3248"></path>
            <path
              d="M359.298246 127.251462c2.245614-0.59883 2.095906-3.892398-0.299416-4.34152-1.946199-0.299415-2.545029-2.694737-1.047953-3.892398 1.946199-1.347368 0.449123-4.34152-1.946199-3.74269-1.946199 0.449123-3.293567-1.347368-2.545029-3.14386 1.047953-2.095906-1.347368-4.191813-3.293567-2.694737-1.347368 1.197661-3.74269 0-3.592983-1.946199 0.299415-2.245614-3.14386-3.293567-4.191812-1.047953-0.898246 1.646784-3.293567 1.646784-3.892398-0.299415-0.898246-2.245614-4.191813-1.646784-4.191813 0.59883 0 1.946199-2.545029 2.694737-3.74269 1.347369-1.646784-1.646784-4.34152 0.299415-3.592982 2.245614 0.59883 1.946199-1.047953 3.592982-2.844445 2.844444-2.245614-0.898246-3.892398 1.946199-2.245614 3.592983 1.347368 1.197661 0.449123 3.74269-1.347368 3.74269-2.245614 0-2.844444 3.293567-0.598831 4.191813 1.946199 0.59883 1.946199 3.14386 0.299415 3.892397-2.095906 1.047953-1.197661 4.34152 1.047954 4.191813 1.946199-0.299415 3.14386 2.095906 1.946198 3.592983-1.347368 1.946199 0.59883 4.34152 2.694737 3.293567 1.646784-0.898246 3.592982 0.59883 3.14386 2.545029-0.59883 2.245614 2.245614 3.592982 3.74269 1.946199 1.197661-1.347368 3.592982-0.898246 3.892398 1.047953 0.449123 2.245614 3.74269 2.545029 4.34152 0.299415 0.449123-1.946199 2.844444-2.245614 3.892398-0.59883 1.197661 2.095906 4.34152 0.898246 3.892397-1.347368-0.449123-1.946199 1.646784-3.293567 3.293568-2.095907 2.095906 1.197661 4.34152-1.047953 3.143859-3.143859-1.047953-1.646784 0.299415-3.74269 2.095907-3.293568 2.245614 0.449123 3.592982-2.694737 1.347368-3.892397-1.646784-1.047953-1.047953-3.443275 0.598831-3.892398z m-19.611696 8.683041c-5.389474 0-9.730994-4.34152-9.730994-9.730994s4.34152-9.730994 9.730994-9.730994 9.730994 4.34152 9.730994 9.730994-4.34152 9.730994-9.730994 9.730994z m0 0"
              fill="#A8E65B" id="3249"></path>
            <path
              d="M236.538012 289.983626c0 9.880702 2.545029 17.815205 5.539181 17.815204s5.539181-7.934503 5.539181-17.815204c0-9.880702-2.545029-17.815205-5.539181-17.815205-2.994152 0.149708-5.539181 8.084211-5.539181 17.815205z m-16.767252 11.527485c4.491228 4.491228 9.431579 7.934503 12.874854 8.982456 3.443275 1.047953 4.940351-0.449123 3.892398-3.892397-1.047953-3.443275-4.491228-8.383626-8.982456-12.874854s-9.431579-7.934503-12.874854-8.982456c-3.443275-1.047953-4.940351 0.449123-3.892398 3.892397 1.047953 3.443275 4.491228 8.383626 8.982456 12.874854z m-21.707602 14.072515c0 2.994152 7.934503 5.539181 17.815205 5.539181 9.880702 0 17.815205-2.545029 17.815204-5.539181s-7.934503-5.539181-17.815204-5.539182c-9.880702 0-17.815205 2.545029-17.815205 5.539182z m29.043275 22.306432c4.491228-4.491228 7.934503-9.431579 8.982456-12.874853 1.047953-3.443275-0.449123-4.940351-3.892398-3.892398-3.443275 1.047953-8.383626 4.491228-12.874854 8.982456s-7.934503 9.431579-8.982456 12.874854c-1.047953 3.443275 0.449123 4.940351 3.892398 3.892398 3.443275-1.047953 8.383626-4.491228 12.874854-8.982457z m8.683041 4.042106c0 9.880702 2.545029 17.815205 5.539181 17.815204s5.539181-7.934503 5.539181-17.815204c0-9.880702-2.545029-17.815205-5.539181-17.815205s-5.539181 7.934503-5.539181 17.815205z m27.995321-11.22807c-4.491228-4.491228-9.431579-7.934503-12.874853-8.982457-3.592982-1.047953-4.940351 0.449123-3.892398 3.892398 1.047953 3.443275 4.491228 8.383626 8.982456 12.874854s9.431579 7.934503 12.874854 8.982456c3.443275 1.047953 4.940351-0.449123 3.892397-3.892398-1.047953-3.443275-4.491228-8.383626-8.982456-12.874853z m-13.922807-14.222223c0 2.095906 3.443275 3.74269 8.832749 4.790644 5.539181 1.047953 12.276023 1.047953 17.815205 0 5.539181-1.047953 8.832749-2.844444 8.832748-4.790644 0-1.946199-3.443275-3.74269-8.832748-4.790643-5.539181-1.047953-12.276023-1.047953-17.815205 0-5.389474 0.898246-8.832749 2.694737-8.832749 4.790643z m6.437427-22.605848c-4.491228 4.491228-7.934503 9.431579-8.982456 12.874854-1.047953 3.443275 0.449123 4.940351 3.892398 3.892398 3.443275-1.047953 8.383626-4.491228 12.874854-8.982456s7.934503-9.431579 8.982456-12.874854c1.047953-3.443275-0.449123-4.940351-3.892398-3.892398-3.443275 1.047953-8.383626 4.491228-12.874854 8.982456z m698.984796 258.694737c0 9.880702 2.545029 17.815205 5.539181 17.815205s5.539181-7.934503 5.539181-17.815205c0-9.880702-2.545029-17.815205-5.539181-17.815204-2.994152-0.149708-5.539181 7.934503-5.539181 17.815204z m-16.91696 11.22807c7.036257 7.036257 14.37193 10.928655 16.617544 8.683041 2.095906-2.095906-1.646784-9.581287-8.533333-16.617544-7.036257-7.036257-14.37193-10.928655-16.617544-8.68304-2.395322 2.245614 1.646784 9.581287 8.533333 16.617543z m-21.557894 14.222223c0 2.095906 3.443275 3.74269 8.832748 4.790643 5.539181 1.047953 12.276023 1.047953 17.815205 0 5.539181-1.047953 8.832749-2.844444 8.832748-4.790643 0-2.095906-3.443275-3.74269-8.832748-4.790644-5.539181-1.047953-12.276023-1.047953-17.815205 0-5.539181 0.898246-8.832749 2.844444-8.832748 4.790644z m29.043275 22.306432c7.036257-7.036257 10.928655-14.37193 8.683041-16.617543-2.095906-2.095906-9.581287 1.646784-16.617544 8.68304-7.036257 7.036257-10.928655 14.37193-8.683041 16.617544 2.395322 2.095906 9.730994-1.646784 16.617544-8.683041z m8.683041 3.892398c0 9.880702 2.545029 17.815205 5.539181 17.815205s5.539181-7.934503 5.539181-17.815205c0-9.880702-2.545029-17.815205-5.539181-17.815205-2.994152-0.149708-5.539181 7.934503-5.539181 17.815205z m27.995321-11.377778c-4.491228-4.491228-9.431579-7.934503-12.874854-8.982456-3.443275-1.047953-4.940351 0.449123-3.892397 3.892398 1.047953 3.443275 4.491228 8.383626 8.982456 12.874854s9.431579 7.934503 12.874854 8.982456c3.443275 1.047953 4.940351-0.449123 3.892397-3.892398-1.047953-3.293567-4.491228-8.233918-8.982456-12.874854z m-14.072514-14.222222c0 2.095906 3.443275 3.74269 8.832748 4.790643 5.539181 1.047953 12.276023 1.047953 17.815205 0 5.539181-1.047953 8.832749-2.844444 8.832748-4.790643 0-2.095906-3.443275-3.74269-8.832748-4.790643-5.539181-1.047953-12.276023-1.047953-17.815205 0-5.539181 0.898246-8.832749 2.844444-8.832748 4.790643z m6.587134-22.156725c-7.036257 7.036257-10.928655 14.37193-8.533333 16.617544 2.095906 2.095906 9.581287-1.646784 16.617544-8.533334 7.036257-7.036257 10.928655-14.37193 8.68304-16.617543-2.395322-2.395322-9.730994 1.497076-16.767251 8.533333z m0 0"
              fill="#FF9140" id="3250"></path>
            <path
              d="M450.320468 163.330994c0 4.34152 0.748538 8.233918 1.946199 10.329825 1.197661 2.095906 2.545029 2.095906 3.74269 0s1.946199-6.138012 1.946199-10.329825c0-4.34152-0.748538-8.233918-1.946199-10.329824-1.197661-2.095906-2.545029-2.095906-3.74269 0-1.347368 2.095906-1.946199 5.988304-1.946199 10.329824z m-26.198831 17.366082c0 2.095906 5.389474 3.74269 11.976609 3.74269s11.976608-1.646784 11.976608-3.74269-5.389474-3.74269-11.976608-3.74269-11.976608 1.796491-11.976609 3.74269z m25.450293 17.665497c0 4.34152 0.748538 8.233918 1.946199 10.329825 1.197661 2.095906 2.545029 2.095906 3.74269 0s1.946199-6.138012 1.946199-10.329825c0-4.34152-0.748538-8.233918-1.946199-10.329824-1.197661-2.095906-2.545029-2.095906-3.74269 0s-1.946199 5.988304-1.946199 10.329824z m9.581286-17.216374c0 2.095906 5.389474 3.74269 11.976609 3.74269s11.976608-1.646784 11.976608-3.74269-5.389474-3.74269-11.976608-3.74269-11.976608 1.646784-11.976609 3.74269z m0 0"
              fill="#EF4B4B" id="3251"></path>
            <path d="M860.669006 244.472515h2.395321v48.505263h-2.395321z" fill="#BBEDFF" id="3252"></path>
            <path d="M863.064327 244.472515h2.54503v48.505263h-2.54503z" fill="#BCEDFF" id="3253"></path>
            <path d="M865.609357 244.472515h2.545029v48.505263h-2.545029z" fill="#BEEDFF" id="3254"></path>
            <path d="M867.854971 244.472515h2.545029v48.505263h-2.545029z" fill="#C0EEFF" id="3255"></path>
            <path d="M870.4 244.472515h2.395322v48.505263h-2.395322z" fill="#C1EEFF" id="3256"></path>
            <path d="M872.795322 244.472515h2.545029v48.505263H872.795322z" fill="#C2EEFF" id="3257"></path>
            <path d="M875.340351 244.472515h2.545029v48.505263h-2.545029z" fill="#C3EEFF" id="3258"></path>
            <path d="M877.88538 244.472515h2.395322v48.505263h-2.395322z" fill="#C4EEFF" id="3259"></path>
            <path d="M880.130994 244.472515h2.395322v48.505263h-2.395322z" fill="#C5EEFF" id="3260"></path>
            <path d="M882.526316 244.472515h2.545029v48.505263h-2.545029z" fill="#C5EFFF" id="3261"></path>
            <path d="M885.071345 244.472515h2.545029v48.505263h-2.545029z" fill="#C6EFFF" id="3262"></path>
            <path d="M887.616374 244.472515h2.395322v48.505263h-2.395322z" fill="#C7EFFF" id="3263"></path>
            <path d="M890.011696 244.472515h2.545029v48.505263h-2.545029z" fill="#C8EFFF" id="3264"></path>
            <path d="M892.556725 244.472515h2.545029v48.505263h-2.545029z" fill="#C9EFFF" id="3265"></path>
            <path d="M894.802339 244.472515h2.545029v48.505263h-2.545029z" fill="#CAEFFF" id="3266"></path>
            <path d="M897.347368 244.472515h2.395322v48.505263h-2.395322z" fill="#CDF0FF" id="3267"></path>
            <path d="M899.74269 244.472515h2.545029v48.505263H899.74269z" fill="#CEF0FF" id="3268"></path>
            <path d="M902.287719 244.472515h2.54503v48.505263h-2.54503z" fill="#CFF0FF" id="3269"></path>
            <path d="M904.832749 244.472515h2.395321v48.505263h-2.395321z" fill="#D0F0FF" id="3270"></path>
            <path d="M907.078363 244.472515h2.395321v48.505263h-2.395321z" fill="#D1F0FF" id="3271"></path>
            <path d="M909.473684 244.472515h2.545029v48.505263h-2.545029z" fill="#D2F0FF" id="3272"></path>
            <path d="M912.018713 244.472515h2.54503v48.505263h-2.54503z" fill="#D2F1FF" id="3273"></path>
            <path d="M914.563743 244.472515h2.395321v48.505263h-2.395321z" fill="#D3F1FF" id="3274"></path>
            <path d="M916.959064 244.472515h2.54503v48.505263h-2.54503z" fill="#D4F1FF" id="3275"></path>
            <path d="M919.504094 244.472515h2.545029v48.505263h-2.545029z" fill="#D5F1FF" id="3276"></path>
            <path d="M921.749708 244.472515h2.545029v48.505263h-2.545029z" fill="#D6F1FF" id="3277"></path>
            <path d="M924.294737 244.472515h2.395321v48.505263h-2.395321z" fill="#D7F1FF" id="3278"></path>
            <path d="M926.690058 244.472515h2.54503v48.505263H926.690058z" fill="#D9F3FF" id="3279"></path>
            <path d="M929.235088 244.472515h2.545029v48.505263h-2.545029z" fill="#DAF3FF" id="3280"></path>
            <path d="M931.780117 244.472515h2.395322v48.505263h-2.395322z" fill="#DBF3FF" id="3281"></path>
          </svg>